<?xml version="1.0"?>
<svg version="1.1" xmlns="http://www.w3.org/2000/svg" width="400" height="200" style="border: dashed 2px #aaa"><path fill="#f0da37" d="M15.93017578125,94.32373046875q-0.03662109375-0.44677734375,0.05859375-0.7763671875t0.380859375-0.5419921875t0.91552734375-0.21240234375l2.3583984375,0q0.4833984375,0,1.26708984375,0.05126953125t1.6845703125,0.15380859375t1.79443359375,0.31494140625t1.63330078125,0.52734375t1.201171875,0.7763671875t0.46142578125,1.09130859375q0,0.8935546875-0.52001953125,1.67724609375t-1.3037109375,1.41357421875t-1.6552734375,1.12060546875t-1.56005859375,0.88623046875q2.724609375,0.6005859375,4.2626953125,2.490234375t1.5380859375,4.716796875q0,1.494140625-0.5712890625,2.95166015625t-1.56005859375,2.62939453125t-2.34375,1.8896484375t-2.90771484375,0.7177734375q-0.205078125,0-0.46142578125-0.0439453125t-0.46875-0.13916015625t-0.3662109375-0.27099609375t-0.15380859375-0.4541015625q0-1.2890625,1.3916015625-1.2890625q0.234375,0,0.54931640625,0.06591796875t0.49072265625,0.27099609375q0.8056640625-0.3369140625,1.47216796875-1.0693359375t1.1279296875-1.63330078125t0.7177734375-1.8896484375t0.25634765625-1.79443359375q0-0.966796875-0.28564453125-1.97021484375t-0.82763671875-1.8603515625t-1.3330078125-1.44287109375t-1.81640625-0.732421875q-0.263671875-0.029296875-0.57861328125-0.0439453125l-0.6298828125-0.029296875t-0.615234375-0.087890625t-0.52001953125-0.234375q0.1171875,2.431640625,0.30029296875,4.8486328125t0.49072265625,4.8486328125q0.1171875,0.1171875,0.1611328125,0.34423828125t0.0732421875,0.4833984375t0.029296875,0.49072265625l0,0.3955078125q0,0.263671875-0.17578125,0.43212890625t-0.41748046875,0.27099609375t-0.5126953125,0.1318359375t-0.47607421875,0.029296875q-0.6591796875,0-1.0107421875-0.17578125t-0.498046875-0.5126953125t-0.1904296875-0.76904296875t-0.0732421875-0.94482421875q-0.3955078125-4.0869140625-0.5712890625-8.0859375t-0.17578125-8.0859375q0-0.4833984375-0.03662109375-0.93017578125z M18.6328125,93.701171875q0,1.8017578125,0.1171875,3.61083984375t0.205078125,3.61083984375q0.6591796875-0.3955078125,1.728515625-0.93017578125t2.07275390625-1.17919921875t1.72119140625-1.4208984375t0.7177734375-1.6845703125q0-0.7177734375-0.849609375-1.09130859375t-1.9775390625-0.556640625t-2.20458984375-0.22705078125t-1.53076171875-0.1318359375z"/><path fill="#" d=""/></svg>
