<svg width="629" height="631" viewBox="0 0 629 631" fill="none" xmlns="http://www.w3.org/2000/svg">
<ellipse cx="626" cy="314.5" rx="291" ry="314.5" fill="#6C63FF"/>
<g clip-path="url(#clip0)">
<path d="M155.255 576.469L156.535 609.043L156.535 609.044C156.75 614.549 155.147 619.933 152.077 624.01C149.007 628.088 144.722 630.525 140.164 630.786L139.606 630.818L137.511 577.486L155.255 576.469Z" fill="#2F2E41"/>
<path d="M538.658 521.422C525.814 551.698 509.523 580.978 488.911 607.479C488.453 608.078 487.991 608.661 487.524 609.254L438.688 581.328C438.987 580.728 439.314 580.055 439.667 579.32C460.645 535.964 587.28 271.492 583.279 211.593C583.745 216.533 598.755 379.911 538.658 521.422Z" fill="#E6E6E6"/>
<path d="M498.333 612.867C497.649 613.336 496.948 613.796 496.243 614.24L459.607 593.29C460.119 592.851 460.716 592.332 461.401 591.748C472.625 582.014 506.001 552.81 538.658 521.422C573.753 487.693 608.026 451.452 613.116 434.153C612.082 438.12 579.96 558.701 498.333 612.867Z" fill="#E6E6E6"/>
<path d="M60.9422 629.517C92.168 629.517 117.481 598.941 117.481 561.224C117.481 523.506 92.168 492.93 60.9422 492.93C29.7163 492.93 4.40283 523.506 4.40283 561.224C4.40283 598.941 29.7163 629.517 60.9422 629.517Z" fill="#6C63FF"/>
<path d="M83.5899 532.565H38.2944C36.2929 532.567 34.374 533.529 32.9587 535.239C31.5435 536.948 30.7474 539.266 30.7451 541.683V580.764C30.7474 583.181 31.5434 585.499 32.9587 587.209C34.374 588.918 36.2929 589.88 38.2944 589.883H83.59C85.5915 589.88 87.5104 588.918 88.9257 587.209C90.3409 585.499 91.137 583.181 91.1393 580.764V541.683C91.137 539.266 90.3409 536.948 88.9256 535.239C87.5103 533.529 85.5914 532.567 83.5899 532.565ZM83.5899 537.775C83.8603 537.777 84.1296 537.819 84.3912 537.902L60.9474 560.491L37.6407 537.856C37.8557 537.802 38.0747 537.775 38.2943 537.775H83.5899ZM83.5899 584.672H38.2944C37.4366 584.671 36.6142 584.259 36.0077 583.526C35.4011 582.793 35.06 581.8 35.059 580.764V542.034L59.5907 565.859C59.9727 566.23 60.4479 566.433 60.9381 566.434C61.4282 566.435 61.9041 566.235 62.2872 565.866L86.8254 542.222V580.764C86.8244 581.8 86.4832 582.793 85.8767 583.526C85.2701 584.259 84.4477 584.671 83.5899 584.672Z" fill="white"/>
<path d="M279.14 462.625L291.791 462.751C293.071 462.763 294.338 462.439 295.504 461.799C296.669 461.16 297.705 460.221 298.54 459.048C299.374 457.875 299.986 456.497 300.334 455.009C300.682 453.52 300.757 451.959 300.554 450.432C300.335 448.789 299.8 447.231 298.992 445.883C298.184 444.535 297.125 443.435 295.901 442.672C294.676 441.909 293.321 441.503 291.943 441.488C290.566 441.473 289.204 441.849 287.969 442.586L276.039 449.696L235.234 460.688L217.752 439.099L207.711 459.076L231.301 481.09L279.14 462.625Z" fill="#FFB8B8"/>
<path d="M276.77 620.502L261.865 623.964C251.684 585.2 240.653 548.49 240.654 520.098C226.246 539.467 208.38 550.548 187.341 554.028L189.634 511.096L206.831 500.017L233.153 485.343C235.457 484.058 237.943 483.315 240.478 483.154C245.406 482.841 250.255 484.741 254.093 488.487C257.93 492.234 260.485 497.563 261.265 503.449L276.77 620.502Z" fill="#2F2E41"/>
<path d="M205.398 548.834L199.458 554.288C196.903 556.633 193.886 558.13 190.704 558.631C187.523 559.132 184.288 558.619 181.321 557.144C164.306 541.738 152.218 546.283 141.262 569.536C128.121 551.621 124.879 525.747 136.607 498.978L201.672 500.709L214.857 495.862L205.398 548.834Z" fill="#2F2E41"/>
<path d="M183.729 629.062C180.001 630.447 175.988 630.204 172.393 628.375C168.798 626.545 165.851 623.246 164.068 619.056C158.221 612.835 153.287 603.928 149.008 593.097C145.937 585.151 143.301 576.972 141.115 568.611C138.154 557.564 143.106 545.496 152.321 542.191C152.595 542.093 152.872 542 153.153 541.913C165.455 538.098 178.087 546.669 182.293 561.144L194.52 603.238C195.242 605.724 195.552 608.359 195.432 610.99C195.311 613.621 194.763 616.198 193.818 618.573C192.873 620.948 191.55 623.076 189.924 624.833C188.299 626.591 186.403 627.945 184.344 628.817C184.14 628.904 183.936 628.985 183.729 629.062Z" fill="#2F2E41"/>
<path opacity="0.2" d="M146.926 588.303C146.926 588.303 161.257 607.692 164.123 618.771L146.926 588.303Z" fill="black"/>
<path d="M91.342 496.802L86.5455 510.942C86.0602 512.373 85.8391 513.915 85.8976 515.459C85.9562 517.004 86.2929 518.515 86.8845 519.886C87.476 521.257 88.308 522.456 89.3226 523.399C90.3371 524.342 91.5097 525.006 92.7586 525.346C94.1027 525.711 95.4991 525.69 96.8352 525.284C98.1714 524.879 99.4101 524.1 100.452 523.01C101.493 521.921 102.308 520.552 102.832 519.012C103.355 517.473 103.572 515.807 103.465 514.147L102.432 498.126L109.143 448.282L132.231 436.698L120.607 418.016L94.9219 436.292L91.342 496.802Z" fill="#FFB8B8"/>
<path d="M205.972 498.978C189.5 532.397 156.664 545.338 128.541 519.169C133.488 499.534 149.461 445.269 139.142 443.192C117.233 454.29 117.201 428.233 113.103 415.192L162.977 393.034L189.92 402.036L195.443 404.403C199.038 405.944 202.155 408.777 204.377 412.522C206.598 416.266 207.817 420.743 207.869 425.35C196.551 445.1 188.173 466.168 205.972 498.978Z" fill="#6C63FF"/>
<path d="M212.277 471.973L192.5 452.238L199.092 406.191L226.036 440.813L212.277 471.973Z" fill="#6C63FF"/>
<path d="M540.448 155.639H537.622V62.1229C537.622 47.7686 532.901 34.0022 524.498 23.8522C516.095 13.7022 504.698 8 492.814 8H328.789C316.905 8 305.508 13.7022 297.105 23.8522C288.702 34.0022 283.981 47.7686 283.981 62.1229V575.158C283.981 589.513 288.702 603.279 297.105 613.429C305.508 623.579 316.905 629.281 328.789 629.281H492.813C504.697 629.281 516.094 623.579 524.497 613.429C532.9 603.279 537.621 589.513 537.621 575.158V222.205H540.448L540.448 155.639Z" fill="#3F3D56"/>
<path d="M494.622 22.0796H473.211C474.196 24.9957 474.573 28.1596 474.307 31.2927C474.041 34.4258 473.141 37.4318 471.687 40.0459C470.233 42.66 468.268 44.8019 465.967 46.2828C463.666 47.7638 461.099 48.5384 458.491 48.5384H364.524C361.916 48.5381 359.349 47.7634 357.049 46.2825C354.748 44.8016 352.784 42.66 351.33 40.0463C349.875 37.4325 348.976 34.427 348.71 31.2943C348.444 28.1616 348.82 24.998 349.804 22.0822H329.803C320.929 22.0822 312.417 26.3407 306.142 33.9208C299.866 41.501 296.341 51.7819 296.341 62.5019V574.782C296.341 585.502 299.866 595.783 306.142 603.363C312.417 610.943 320.929 615.202 329.803 615.202H494.616C503.49 615.202 512.002 610.943 518.277 603.363C524.553 595.783 528.078 585.502 528.078 574.782V62.4993C528.078 51.7793 524.553 41.4984 518.277 33.9183C512.002 26.3381 503.49 22.0796 494.616 22.0796L494.622 22.0796Z" fill="white"/>
<path d="M412.496 586.574C422.644 586.574 430.871 576.636 430.871 564.378C430.871 552.12 422.644 542.183 412.496 542.183C402.347 542.183 394.121 552.12 394.121 564.378C394.121 576.636 402.347 586.574 412.496 586.574Z" fill="#E6E6E6"/>
<path d="M337.951 359.114C336.214 359.114 334.801 361.063 334.801 363.458C334.801 365.852 336.214 367.801 337.951 367.801H486.468C488.205 367.801 489.618 365.852 489.618 363.458C489.618 361.063 488.205 359.114 486.468 359.114H337.951Z" fill="#E6E6E6"/>
<path d="M337.951 461.555C336.214 461.555 334.801 463.504 334.801 465.899C334.801 468.293 336.214 470.242 337.951 470.242H486.468C488.205 470.242 489.618 468.293 489.618 465.899C489.618 463.504 488.205 461.555 486.468 461.555H337.951Z" fill="#E6E6E6"/>
<path d="M337.951 385.175C336.214 385.175 334.801 387.123 334.801 389.518C334.801 391.913 336.214 393.862 337.951 393.862H401.858C403.595 393.862 405.009 391.913 405.009 389.518C405.009 387.123 403.595 385.175 401.858 385.175H337.951Z" fill="#E6E6E6"/>
<path d="M337.951 410.015C336.214 410.015 334.801 411.964 334.801 414.359C334.801 416.753 336.214 418.702 337.951 418.702H486.468C488.205 418.702 489.618 416.753 489.618 414.359C489.618 411.964 488.205 410.015 486.468 410.015H337.951Z" fill="#E6E6E6"/>
<path d="M337.951 436.076C336.214 436.076 334.801 438.024 334.801 440.419C334.801 442.814 336.214 444.762 337.951 444.762H401.858C403.595 444.762 405.009 442.814 405.009 440.419C405.009 438.024 403.595 436.076 401.858 436.076H337.951Z" fill="#E6E6E6"/>
<path d="M365.988 161.343H458.44C459.461 161.344 460.44 161.835 461.162 162.707C461.884 163.58 462.291 164.762 462.292 165.996V282.298C462.291 283.531 461.884 284.714 461.162 285.586C460.44 286.459 459.461 286.949 458.44 286.951H365.988C364.967 286.949 363.988 286.459 363.266 285.586C362.544 284.714 362.137 283.531 362.136 282.298V165.996C362.137 164.762 362.544 163.58 363.266 162.707C363.988 161.835 364.967 161.344 365.988 161.343Z" fill="#6C63FF"/>
<path d="M438.74 262.967C439.084 262.968 439.425 262.887 439.742 262.729C440.06 262.571 440.349 262.338 440.593 262.045C440.836 261.752 441.029 261.403 441.161 261.02C441.293 260.636 441.361 260.225 441.361 259.81C441.361 259.395 441.293 258.983 441.162 258.6C441.03 258.216 440.838 257.867 440.594 257.574C440.351 257.28 440.062 257.048 439.745 256.889C439.427 256.73 439.087 256.649 438.743 256.649H385.688C385.344 256.648 385.004 256.729 384.686 256.888C384.368 257.046 384.079 257.278 383.836 257.572C383.592 257.865 383.399 258.213 383.267 258.597C383.136 258.98 383.068 259.391 383.067 259.807C383.067 260.222 383.135 260.633 383.266 261.017C383.398 261.401 383.591 261.749 383.834 262.043C384.077 262.336 384.366 262.569 384.684 262.728C385.001 262.886 385.342 262.968 385.685 262.967H438.74Z" fill="white"/>
<path d="M438.74 244.355C439.434 244.355 440.099 244.022 440.59 243.43C441.08 242.838 441.356 242.034 441.356 241.196C441.356 240.358 441.08 239.555 440.59 238.963C440.099 238.37 439.434 238.037 438.74 238.037H385.688C384.994 238.037 384.329 238.369 383.838 238.961C383.348 239.554 383.072 240.357 383.072 241.195C383.071 242.033 383.346 242.836 383.837 243.429C384.327 244.022 384.992 244.355 385.685 244.355H438.74Z" fill="white"/>
<path d="M412.214 185.326C415.47 185.326 418.653 186.493 421.36 188.678C424.067 190.862 426.177 193.968 427.423 197.601C428.669 201.235 428.995 205.233 428.36 209.09C427.724 212.947 426.157 216.49 423.854 219.271C421.552 222.052 418.619 223.946 415.426 224.713C412.232 225.48 408.922 225.086 405.914 223.581C402.906 222.076 400.335 219.528 398.527 216.258C396.718 212.988 395.752 209.143 395.752 205.211C395.757 199.939 397.493 194.885 400.579 191.157C403.665 187.429 407.85 185.332 412.214 185.326Z" fill="white"/>
<path d="M202.173 387.006H153.302C152.297 387.004 151.333 386.521 150.622 385.663C149.911 384.804 149.512 383.64 149.51 382.426V356.981C149.51 347.938 152.484 339.266 157.778 332.872C163.072 326.477 170.251 322.885 177.738 322.885C185.224 322.885 192.404 326.477 197.697 332.872C202.991 339.266 205.965 347.938 205.965 356.981V382.426C205.964 383.64 205.564 384.804 204.853 385.663C204.142 386.521 203.179 387.004 202.173 387.006Z" fill="#2F2E41"/>
<path d="M201.293 372.466C206.775 360.352 203.089 345.163 193.06 338.541C183.031 331.919 170.457 336.371 164.975 348.485C159.492 360.599 163.178 375.787 173.207 382.41C183.236 389.032 195.81 384.58 201.293 372.466Z" fill="#FFB6B6"/>
<path d="M212.643 359.525H182.76L182.453 354.343L180.921 359.525H176.32L175.712 349.254L172.676 359.525H163.772V359.017C163.779 351.866 166.133 345.01 170.319 339.954C174.505 334.898 180.181 332.053 186.101 332.045H190.314C196.234 332.053 201.91 334.898 206.096 339.954C210.282 345.01 212.636 351.866 212.643 359.017V359.525Z" fill="#2F2E41"/>
<path d="M182.515 391.755C182.29 391.755 182.065 391.731 181.844 391.684L159.962 387.02V343.337H184.05L183.453 344.177C175.156 355.866 181.407 374.819 185.872 385.076C186.201 385.827 186.348 386.676 186.295 387.523C186.243 388.371 185.993 389.183 185.575 389.867C185.225 390.452 184.765 390.928 184.233 391.256C183.701 391.584 183.112 391.755 182.515 391.755Z" fill="#2F2E41"/>
<path d="M255.369 607.428L282.366 607.427H282.367C286.93 607.427 291.306 609.617 294.533 613.514C297.759 617.411 299.572 622.697 299.572 628.208V628.884L255.37 628.886L255.369 607.428Z" fill="#2F2E41"/>
<path d="M628.293 631H0.706742C0.519302 631 0.339539 630.91 0.206999 630.75C0.0744595 630.59 0 630.373 0 630.146C0 629.92 0.0744595 629.703 0.206999 629.543C0.339539 629.383 0.519302 629.293 0.706742 629.293H628.293C628.481 629.293 628.66 629.383 628.793 629.543C628.926 629.703 629 629.92 629 630.146C629 630.373 628.926 630.59 628.793 630.75C628.66 630.91 628.481 631 628.293 631Z" fill="#CACACA"/>
</g>
<defs>
<clipPath id="clip0">
<rect width="629" height="623" fill="white" transform="translate(0 8)"/>
</clipPath>
</defs>
</svg>
